<svg id="Ebene_1" data-name="Ebene 1" viewBox="0 0 226.48037 41.140441" version="1.1" sodipodi:docname="auma_r.svg" width="226.48036" height="41.140442" inkscape:version="1.1.2 (b8e25be833, 2022-02-05)" xmlns:inkscape="http://www.inkscape.org/namespaces/inkscape" xmlns:sodipodi="http://sodipodi.sourceforge.net/DTD/sodipodi-0.dtd" xmlns="http://www.w3.org/2000/svg" xmlns:svg="http://www.w3.org/2000/svg">
  <sodipodi:namedview id="namedview21" pagecolor="#505050" bordercolor="#eeeeee" borderopacity="1" inkscape:pageshadow="0" inkscape:pageopacity="0" inkscape:pagecheckerboard="0" showgrid="false" fit-margin-top="0" fit-margin-left="0" fit-margin-right="0" fit-margin-bottom="0" inkscape:zoom="3.778311" inkscape:cx="103.61773" inkscape:cy="21.967488" inkscape:window-width="1920" inkscape:window-height="1009" inkscape:window-x="-8" inkscape:window-y="-8" inkscape:window-maximized="1" inkscape:current-layer="Ebene_1"/>
  <defs id="defs4">
    <style id="style2">.cls-1{fill:#006eab;fill-rule:evenodd;}.cls-2{fill:none;}</style>
  </defs>
  <g id="g29" transform="translate(-37.999636,-34.859992)">
    <path class="cls-1" d="m 258.13,36 a 5.2,5.2 0 1 1 -5.17,5.2 5.2,5.2 0 0 1 5.17,-5.2 z m 0,-1.14 a 6.34,6.34 0 1 1 -6.33,6.34 6.35,6.35 0 0 1 6.33,-6.34 z" id="path6"/>
    <path class="cls-1" d="m 256.83,41.55 h 1.26 l 1.91,3.13 h 1.24 l -2,-3.18 a 1.88,1.88 0 0 0 1.85,-2 c 0,-1.4 -0.83,-2 -2.54,-2 h -2.75 v 7.21 h 1.09 v -3.16 z m 0,-0.93 v -2.23 h 1.49 c 0.76,0 1.57,0.17 1.57,1.07 0,1.09 -0.83,1.16 -1.76,1.16 z" id="path8"/>
    <path class="cls-1" d="M 86.07,39.89 A 1.92,1.92 0 0 1 88,38 h 8.86 a 1.92,1.92 0 0 1 1.9,1.89 v 26.89 a 2.55,2.55 0 0 0 2.53,2.53 h 7.59 a 2.56,2.56 0 0 0 2.53,-2.53 V 39.89 a 1.9,1.9 0 0 1 1.9,-1.89 h 8.85 a 1.9,1.9 0 0 1 1.9,1.89 v 31 A 5.09,5.09 0 0 1 119,76 H 91.14 a 5.07,5.07 0 0 1 -5.07,-5.06 v -31 z" id="path10"/>
    <path class="cls-1" d="m 197.41,74.05 a 1.9,1.9 0 0 1 -1.9,1.9 h -8.86 a 1.89,1.89 0 0 1 -1.89,-1.89 V 47.17 a 2.51,2.51 0 0 0 -2.53,-2.53 h -7.59 a 2.54,2.54 0 0 0 -2.53,2.53 v 26.88 a 1.88,1.88 0 0 1 -1.86,1.89 h -8.9 a 1.92,1.92 0 0 1 -1.91,-1.88 v -26.9 a 2.56,2.56 0 0 0 -2.53,-2.53 h -7.6 a 2.56,2.56 0 0 0 -2.53,2.53 v 26.89 a 1.9,1.9 0 0 1 -1.89,1.89 h -8.86 A 1.93,1.93 0 0 1 134.1,74.06 V 39.88 a 1.92,1.92 0 0 1 1.9,-1.89 h 56.3 a 5.05,5.05 0 0 1 5.06,5.06 v 31 z" id="path12"/>
    <path class="cls-1" d="m 51.91,59.19 a 2.56,2.56 0 0 0 -2.53,2.53 V 68 a 2.54,2.54 0 0 0 2.53,2.53 h 8.86 A 2.49,2.49 0 0 0 63.3,68 V 61.72 A 2.21,2.21 0 0 0 60.77,59.19 Z M 76,74.05 A 1.9,1.9 0 0 1 74.06,76 h -31 A 5.05,5.05 0 0 1 38,70.89 V 58.55 a 5,5 0 0 1 5.06,-5.06 H 60.77 A 2.53,2.53 0 0 0 63.3,51 V 46.54 A 2.53,2.53 0 0 0 60.77,44 H 42.42 A 1.93,1.93 0 0 1 40.53,42.1 V 39.89 A 1.91,1.91 0 0 1 42.42,38 h 28.47 c 3.42,0 5.11,1.69 5.11,5.06 v 31 z" id="path14"/>
    <path class="cls-1" d="m 221.45,59.19 a 2.55,2.55 0 0 0 -2.53,2.53 V 68 a 2.54,2.54 0 0 0 2.53,2.53 h 8.86 A 2.49,2.49 0 0 0 232.84,68 v -6.28 a 2.21,2.21 0 0 0 -2.53,-2.53 z m 24,14.86 a 1.9,1.9 0 0 1 -1.9,1.9 h -31 a 5.05,5.05 0 0 1 -5.06,-5.06 V 58.55 a 5,5 0 0 1 5.06,-5.06 h 17.72 A 2.53,2.53 0 0 0 232.84,51 V 46.54 A 2.53,2.53 0 0 0 230.31,44 H 212 a 1.94,1.94 0 0 1 -1.9,-1.9 V 39.89 A 1.92,1.92 0 0 1 212,38 h 28.47 c 3.42,0 5.06,1.69 5.06,5.06 v 31 z" id="path16"/>
  </g>
  <rect class="cls-2" width="283.45999" height="113.81" id="rect18" x="-37.999634" y="-34.859993"/>
</svg>